<svg width="16" height="16" viewBox="0 0 16 16" xmlns="http://www.w3.org/2000/svg">
<path fill-rule="evenodd" clip-rule="evenodd" d="M0 7.99973C0 3.58176 3.58165 0 7.99973 0C12.4178 0 15.9997 3.58176 15.9997 7.99973C15.9997 12.4177 12.4178 15.9997 7.99973 15.9997C3.58165 15.9997 0 12.4177 0 7.99973ZM8.06667 9.52128H11.4582C11.7638 9.52128 12.0113 9.27355 12.0113 8.968C12.0113 8.66245 11.7636 8.41472 11.458 8.41472H8.55296V3.31995C8.55296 3.0144 8.30523 2.76667 7.99968 2.76667C7.69413 2.76667 7.4464 3.0144 7.4464 3.31995V8.968C7.4464 9.27355 7.69413 9.52128 7.99968 9.52128C8.00608 9.52128 8.01219 9.52046 8.01831 9.51964C8.02322 9.51898 8.02812 9.51832 8.03317 9.51808C8.03838 9.51828 8.04345 9.51896 8.04851 9.51965C8.05448 9.52047 8.06046 9.52128 8.06667 9.52128Z" />
</svg>
