<svg width="117" height="117" viewBox="0 0 117 117" xmlns="http://www.w3.org/2000/svg">
<path fill-rule="evenodd" clip-rule="evenodd" d="M86.8 100.1C86.8 100.1 83.2 95.7996 80.2 92.0996C93.3 88.3996 98.3 80.2996 98.3 80.2996C94.2 82.9996 90.3 84.8996 86.8 86.1996C81.8 88.2996 77 89.5996 72.3 90.4996C62.7 92.2996 53.9 91.7996 46.4 90.3996C40.7 89.2996 35.8 87.7996 31.7 86.0996C29.4 85.1996 26.9 84.0996 24.4 82.6996C24.2502 82.5997 24.1004 82.5248 23.9506 82.4499L23.9494 82.4493C23.7996 82.3744 23.6498 82.2995 23.5 82.1996C23.4236 82.1614 23.3619 82.1232 23.3091 82.0907C23.2237 82.0379 23.1618 81.9996 23.1 81.9996C21.3 80.9996 20.3 80.2996 20.3 80.2996C20.3 80.2996 25.1 88.1996 37.8 91.9996C34.8 95.7996 31.1 100.2 31.1 100.2C8.99998 99.4996 0.599976 85.0996 0.599976 85.0996C0.599976 53.1996 15 27.2996 15 27.2996C29.4 16.5996 43 16.8996 43 16.8996L44 18.0996C26 23.1996 17.8 31.0996 17.8 31.0996C17.8 31.0996 20 29.8996 23.7 28.2996C34.4 23.5996 42.9 22.3996 46.4 21.9996C46.4762 21.9869 46.5508 21.9742 46.6243 21.9617C47.1286 21.8758 47.5763 21.7996 48.1 21.7996C54.2 20.9996 61.1 20.7996 68.3 21.5996C77.8 22.6996 88 25.4996 98.4 31.0996C98.4 31.0996 90.5 23.5996 73.5 18.4996L74.9 16.8996C74.9 16.8996 88.6 16.5996 102.9 27.2996C102.9 27.2996 117.3 53.1996 117.3 85.0996C117.3 85.0957 117.287 85.1139 117.261 85.1527C117.252 85.1661 117.242 85.1819 117.229 85.2C116.378 86.4764 107.738 99.4364 86.8 100.1ZM66.6 64.7996C66.6 58.6996 71.1 53.7996 76.8 53.7996C82.4 53.7996 87 58.6996 87 64.7996C87 70.8996 82.5 75.7996 76.8 75.7996C71.2 75.7996 66.6 70.8996 66.6 64.7996ZM30.1 64.7996C30.1 58.6996 34.6 53.7996 40.3 53.7996C46 53.7996 50.6 58.6996 50.5 64.7996C50.5 70.8996 46 75.7996 40.3 75.7996C34.7 75.7996 30.1 70.8996 30.1 64.7996Z" />
</svg>
