<svg width="16" height="16" viewBox="0 0 16 16" xmlns="http://www.w3.org/2000/svg">
<path d="M15.2726 0H9.45445C9.0528 0 8.72717 0.325625 8.72717 0.727281C8.72717 1.12894 9.0528 1.45456 9.45445 1.45456H13.5169L6.03114 8.94031C5.74711 9.22434 5.74711 9.68478 6.03114 9.96881C6.17311 10.1108 6.35923 10.1818 6.54536 10.1818C6.73148 10.1818 6.91764 10.1108 7.05964 9.96878L14.5454 2.48306V6.54547C14.5454 6.94712 14.871 7.27275 15.2727 7.27275C15.6743 7.27275 16 6.94712 16 6.54547V0.727281C15.9999 0.325625 15.6743 0 15.2726 0Z" />
<path d="M12.3636 7.27183C11.962 7.27183 11.6363 7.59745 11.6363 7.99911V14.5446H1.45453V4.36273H8C8.40166 4.36273 8.72728 4.03711 8.72728 3.63545C8.72728 3.2338 8.40166 2.9082 8 2.9082H0.727281C0.325625 2.9082 0 3.23383 0 3.63548V15.2719C0 15.6735 0.325625 15.9991 0.727281 15.9991H12.3637C12.7653 15.9991 13.0909 15.6735 13.0909 15.2718V7.99911C13.0909 7.59745 12.7653 7.27183 12.3636 7.27183Z" />
</svg>
