<svg width="20" height="20" viewBox="0 0 20 20" xmlns="http://www.w3.org/2000/svg">
<path d="M19.1386 1.50591e-06H0.86162C0.53906 -0.000593357 0.243533 0.175089 0.0961756 0.454871C-0.0532141 0.738421 -0.0269946 1.07987 0.163858 1.33883L6.85977 10.5411C6.862 10.5443 6.86444 10.5473 6.86668 10.5504C7.10997 10.8709 7.24168 11.2591 7.24229 11.6579V19.1605C7.24086 19.3825 7.33029 19.5961 7.49066 19.7537C7.65123 19.9112 7.86952 20 8.09716 20C8.21281 19.9998 8.32745 19.9774 8.43436 19.934L12.1969 18.5345C12.5339 18.4339 12.7577 18.1236 12.7577 17.75V11.6579C12.7583 11.2591 12.89 10.8709 13.1331 10.5504C13.1354 10.5473 13.1378 10.5443 13.14 10.5411L19.8361 1.33864C20.027 1.07987 20.0532 0.73862 19.9038 0.45507C19.7567 0.175089 19.4609 -0.000593357 19.1386 1.50591e-06Z" />
</svg>
