<svg width="20" height="20" viewBox="0 0 20 20" xmlns="http://www.w3.org/2000/svg">
<path fill-rule="evenodd" clip-rule="evenodd" d="M10.0966 0C4.59822 0 0.139771 4.4755 0.139771 9.99754C0.139771 14.4137 2.99258 18.1607 6.95004 19.4827C7.44791 19.5746 7.62964 19.2659 7.62964 19.001C7.62964 18.7636 7.62093 18.135 7.61595 17.3009C4.84591 17.9051 4.26153 15.9607 4.26153 15.9607C3.80909 14.8061 3.15625 14.4987 3.15625 14.4987C2.25199 13.8782 3.22471 13.8907 3.22471 13.8907C4.22357 13.9613 4.74945 14.921 4.74945 14.921C5.63815 16.4487 7.08011 16.0076 7.64769 15.7514C7.73793 15.1053 7.99557 14.6649 8.27998 14.4149C6.06881 14.1625 3.74437 13.3053 3.74437 9.47458C3.74437 8.38304 4.13208 7.49082 4.76936 6.79166C4.66667 6.53861 4.32501 5.52267 4.86645 4.14622C4.86645 4.14622 5.70287 3.87756 7.60474 5.17091C8.39947 4.9491 9.25083 4.83851 10.0978 4.83414C10.9436 4.83851 11.7956 4.9491 12.5909 5.17091C14.4916 3.87756 15.3261 4.14622 15.3261 4.14622C15.8694 5.52267 15.5278 6.53861 15.4251 6.79166C16.0636 7.49082 16.4488 8.38304 16.4488 9.47458C16.4488 13.3146 14.1206 14.16 11.9026 14.4074C12.2599 14.7161 12.5785 15.3259 12.5785 16.2587C12.5785 17.5952 12.566 18.673 12.566 19.001C12.566 19.2684 12.7453 19.5796 13.2506 19.4815C17.2043 18.1569 20.0547 14.4124 20.0547 9.99754C20.0547 4.4755 15.5962 0 10.0966 0" />
</svg>
