<svg width="25" height="25" viewBox="0 0 25 25" xmlns="http://www.w3.org/2000/svg">
<path d="M23.9583 14.2779H1.04167C0.466665 14.2779 0 13.7552 0 13.1112C0 12.4672 0.466665 11.9445 1.04167 11.9445H23.9583C24.5333 11.9445 25 12.4672 25 13.1112C25 13.7552 24.5333 14.2779 23.9583 14.2779Z" />
<path d="M23.9583 5.33333H1.04167C0.466665 5.33333 0 4.81067 0 4.16667C0 3.52266 0.466665 3 1.04167 3H23.9583C24.5333 3 25 3.52266 25 4.16667C25 4.81067 24.5333 5.33333 23.9583 5.33333Z" />
<path d="M23.9583 23.2221H1.04167C0.466665 23.2221 0 22.6995 0 22.0555C0 21.4115 0.466665 20.8888 1.04167 20.8888H23.9583C24.5333 20.8888 25 21.4115 25 22.0555C25 22.6995 24.5333 23.2221 23.9583 23.2221Z" />
</svg>
