<svg width="520" height="520" viewBox="0 0 520 520" fill="none" xmlns="http://www.w3.org/2000/svg">
<path d="M198.047 0.693497H436.712C481.706 0.693497 518.484 39.0364 518.354 84.0306V321H198.047V0.693497Z" />
<path d="M84.7141 0.693497H124.752V124.199H1.24661V84.161C1.24661 37.3409 39.7199 0.693497 84.7141 0.693497Z" />
<path d="M124.752 199.19H1.24661V322.695H124.752V199.19Z" />
<path d="M435.017 519.496H394.978V396.121H518.484V436.029C518.484 482.849 480.011 519.496 435.017 519.496Z" />
<path d="M321.553 396.121H198.047V519.627H321.553V396.121Z" />
<path d="M1.24661 436.159V396.121H124.752V519.627H84.7141C37.8941 519.627 1.24661 481.153 1.24661 436.159Z" />
</svg>
