<svg viewBox="0 0 27 27" xmlns="http://www.w3.org/2000/svg">
<path fill-rule="evenodd" clip-rule="evenodd" d="M13 18.9146V21.509C13 21.7802 13.2319 22 13.5 22C13.7761 22 14 21.7721 14 21.509V18.9146C14.5826 18.7087 15 18.1531 15 17.5C15 16.6716 14.3284 16 13.5 16C12.6716 16 12 16.6716 12 17.5C12 18.1531 12.4174 18.7087 13 18.9146ZM6 11V7.49924C6 3.35671 9.35786 0 13.5 0C17.6337 0 21 3.35752 21 7.49924V11C22.6591 11.0047 24 12.3503 24 14.0095V23.9905C24 25.6634 22.6529 27 20.9912 27H6.00879C4.34559 27 3 25.6526 3 23.9905V14.0095C3 12.3396 4.34233 11.0047 6 11ZM9 11V7.50085C9 5.00925 11.0147 3 13.5 3C15.9802 3 18 5.0151 18 7.50085V11H9Z" />
</svg>
