<svg width="24" height="21" viewBox="0 0 24 21" fill="none" xmlns="http://www.w3.org/2000/svg">
<path fill-rule="evenodd" clip-rule="evenodd" d="M20.525 9.4013C22.815 5.6933 23.96 3.8253 23.96 3.7983C23.96 3.7623 23.942 3.7353 23.907 3.7183L16.661 0.111302C16.336 -0.050698 15.852 0.017302 15.616 0.405302L11.277 7.4443L16.5 15.9133C16.893 15.2813 18.235 13.1093 20.525 9.4013ZM6.898 20.1753C7.475 20.4623 7.996 20.1753 7.996 19.4803C7.98999 12.4708 8.00003 8.59816 8.00559 6.45297V6.45271C8.01227 3.87731 8.01249 3.79195 7.97071 3.75744L7.96627 3.75397C7.96307 3.75155 7.95965 3.74895 7.956 3.7453L1.112 0.325302C0.341 -0.058698 0 0.198302 0 0.766302V15.9933C0 16.1983 0.066 16.4063 0.195 16.6153C0.324 16.8243 0.482 16.9733 0.67 17.0623L6.898 20.1753ZM16.005 16.7283L8.853 5.1603V13.1753L16.005 16.7283ZM24 5.4013V19.4803C24 19.7033 23.938 19.8833 23.812 20.0213C23.687 20.1593 23.517 20.2283 23.303 20.2283C23.089 20.2283 22.879 20.1703 22.674 20.0543L16.768 17.1153L24 5.4013Z" fill="#2B374A"/>
</svg>
