<svg width="24" height="24" viewBox="0 0 24 24" xmlns="http://www.w3.org/2000/svg">
<path fill-rule="evenodd" clip-rule="evenodd" d="M20.525 11.2438C22.815 7.53581 23.96 5.66781 23.96 5.64081C23.96 5.60481 23.942 5.57781 23.907 5.56081L16.661 1.95382C16.336 1.79182 15.852 1.85982 15.616 2.24782L11.277 9.28681L16.5 17.7558C16.893 17.1238 18.235 14.9518 20.525 11.2438ZM6.898 22.0178C7.475 22.3048 7.996 22.0178 7.996 21.3228C7.98999 14.3133 8.00003 10.4407 8.00559 8.29548V8.29522C8.01227 5.71982 8.01249 5.63446 7.97071 5.59995L7.96627 5.59648C7.96307 5.59406 7.95965 5.59146 7.956 5.58781L1.112 2.16782C0.341 1.78382 0 2.04082 0 2.60882V17.8358C0 18.0408 0.066 18.2488 0.195 18.4578C0.324 18.6668 0.482 18.8158 0.67 18.9048L6.898 22.0178ZM16.005 18.5708L8.853 7.00281V15.0178L16.005 18.5708ZM24 7.24381V21.3228C24 21.5458 23.938 21.7258 23.812 21.8638C23.687 22.0018 23.517 22.0708 23.303 22.0708C23.089 22.0708 22.879 22.0128 22.674 21.8968L16.768 18.9578L24 7.24381Z" />
</svg>
