<svg width="1044" height="1044" viewBox="0 0 1044 1044" xmlns="http://www.w3.org/2000/svg">
<path d="M588.67 521.82C588.67 685.49 456.89 818.17 294.34 818.17C131.79 818.17 0 685.46 0 521.82C0 358.18 131.78 225.46 294.34 225.46C456.9 225.46 588.67 358.15 588.67 521.82Z" />
<path d="M911.56 521.82C911.56 675.88 845.67 800.82 764.39 800.82C683.11 800.82 617.22 675.88 617.22 521.82C617.22 367.76 683.1 242.82 764.38 242.82C845.66 242.82 911.55 367.72 911.55 521.82" />
<path d="M1043.63 521.82C1043.63 659.82 1020.46 771.76 991.87 771.76C963.28 771.76 940.12 659.85 940.12 521.82C940.12 383.79 963.29 271.88 991.87 271.88C1020.45 271.88 1043.63 383.78 1043.63 521.82Z" />
</svg>
