<svg width="24" height="23" viewBox="0 0 24 23" xmlns="http://www.w3.org/2000/svg">
<path fill-rule="evenodd" clip-rule="evenodd" d="M22.5 5.9848H17.754C18.0945 5.7523 18.387 5.5213 18.591 5.3143C19.8015 4.0978 19.8015 2.1178 18.591 0.901297C17.415 -0.283703 15.366 -0.280703 14.1915 0.901297C13.5405 1.5538 11.8155 4.2103 12.054 5.9848H11.946C12.183 4.2103 10.458 1.5538 9.8085 0.901297C8.6325 -0.280703 6.5835 -0.280703 5.409 0.901297C4.2 2.1178 4.2 4.0978 5.4075 5.3143C5.613 5.5213 5.9055 5.7523 6.246 5.9848H1.5C0.6735 5.9848 0 6.6583 0 7.4848V9.7348C0 10.1488 0.336 10.4848 0.75 10.4848H10.5V7.4848H13.5V10.4848H23.25C23.664 10.4848 24 10.1488 24 9.7348V7.4848C24 6.6583 23.328 5.9848 22.5 5.9848ZM10.4115 5.9353C10.4115 5.9353 10.3485 5.9848 10.134 5.9848C9.0975 5.9848 7.119 4.9078 6.4725 4.2568C5.844 3.6238 5.844 2.5918 6.4725 1.9588C6.777 1.6528 7.1805 1.4848 7.6095 1.4848C8.037 1.4848 8.4405 1.6528 8.745 1.9588C9.756 2.9758 10.761 5.5738 10.4115 5.9353ZM13.5885 5.9353C13.5885 5.9368 13.6515 5.9848 13.8645 5.9848C14.9025 5.9848 16.881 4.9078 17.5275 4.2568C18.1575 3.6238 18.1575 2.5918 17.5275 1.9588C16.917 1.3453 15.8595 1.3483 15.255 1.9588C14.244 2.9758 13.239 5.5738 13.5885 5.9353ZM1.5 11.9848V20.9848C1.5 21.8128 2.1735 22.4848 3 22.4848H10.5V11.9848H1.5ZM13.5 22.4848V11.9848H22.5V20.9848C22.5 21.8128 21.828 22.4848 21 22.4848H13.5Z" />
</svg>
