<svg width="24" height="24" viewBox="0 0 24 24" xmlns="http://www.w3.org/2000/svg">
<path fill-rule="evenodd" clip-rule="evenodd" d="M22.5 6.73556H17.754C18.0945 6.50306 18.387 6.27206 18.591 6.06506C19.8015 4.84856 19.8015 2.86856 18.591 1.65206C17.415 0.46706 15.366 0.47006 14.1915 1.65206C13.5405 2.30456 11.8155 4.96106 12.054 6.73556H11.946C12.183 4.96106 10.458 2.30456 9.8085 1.65206C8.6325 0.47006 6.5835 0.47006 5.409 1.65206C4.2 2.86856 4.2 4.84856 5.4075 6.06506C5.613 6.27206 5.9055 6.50306 6.246 6.73556H1.5C0.6735 6.73556 0 7.40906 0 8.23556V10.4856C0 10.8996 0.336 11.2356 0.75 11.2356H10.5V8.23556H13.5V11.2356H23.25C23.664 11.2356 24 10.8996 24 10.4856V8.23556C24 7.40906 23.328 6.73556 22.5 6.73556ZM10.4115 6.68606C10.4115 6.68606 10.3485 6.73556 10.134 6.73556C9.0975 6.73556 7.119 5.65856 6.4725 5.00756C5.844 4.37456 5.844 3.34256 6.4725 2.70956C6.777 2.40356 7.1805 2.23556 7.6095 2.23556C8.037 2.23556 8.4405 2.40356 8.745 2.70956C9.756 3.72656 10.761 6.32456 10.4115 6.68606ZM13.5885 6.68606C13.5885 6.68756 13.6515 6.73556 13.8645 6.73556C14.9025 6.73556 16.881 5.65856 17.5275 5.00756C18.1575 4.37456 18.1575 3.34256 17.5275 2.70956C16.917 2.09606 15.8595 2.09906 15.255 2.70956C14.244 3.72656 13.239 6.32456 13.5885 6.68606ZM1.5 12.7356V21.7356C1.5 22.5636 2.1735 23.2356 3 23.2356H10.5V12.7356H1.5ZM13.5 23.2356V12.7356H22.5V21.7356C22.5 22.5636 21.828 23.2356 21 23.2356H13.5Z" />
</svg>
