<svg width="28" height="28" viewBox="0 0 28 28" xmlns="http://www.w3.org/2000/svg">
<path fill-rule="evenodd" clip-rule="evenodd" d="M25.4975 12.055L22.7899 3.255H25.7067V1.655H1.6V3.255H4.5168L1.80907 12.055H0V12.855C0 15.9428 2.51216 18.455 5.6 18.455C8.68784 18.455 11.2 15.9428 11.2 12.855V12.055H9.39088L6.6832 3.255H12.8533V20.855H8.85333V24.055H7.25333V25.655H20.0533V24.055H18.4533V20.855H14.4533V3.255H20.6235L17.9157 12.055H16.1067V12.855C16.1067 15.9428 18.6188 18.455 21.7067 18.455C24.7945 18.455 27.3067 15.9428 27.3067 12.855V12.055H25.4975ZM3.4832 12.055L5.6 5.17532L7.7168 12.055H3.4832ZM23.8235 12.055L21.7067 5.17532L19.5899 12.055H23.8235Z" />
</svg>
