<svg width="24" height="24" viewBox="0 0 24 24" xmlns="http://www.w3.org/2000/svg">
<path fill-rule="evenodd" clip-rule="evenodd" d="M14.4898 0H9.48977C9.21377 0 8.98975 0.224016 8.98975 0.500016V23.5C8.98975 23.776 9.21377 24 9.48977 24H14.4898C14.7658 24 14.9898 23.776 14.9898 23.5V0.500016C14.9898 0.224016 14.7658 0 14.4898 0ZM5.5098 11H0.509781C0.233781 11 0.00976562 11.224 0.00976562 11.5V23.5C0.00976562 23.776 0.233781 24 0.509781 24H5.5098C5.7858 24 6.00981 23.776 6.00981 23.5V11.5C6.00977 11.224 5.78678 11 5.5098 11ZM18.4898 5.00002H23.4898C23.7658 5.00002 23.9898 5.22398 23.9898 5.50003V23.5C23.9898 23.776 23.7658 24 23.4898 24H18.4898C18.2138 24 17.9897 23.776 17.9897 23.5V5.50003C17.9897 5.22403 18.2138 5.00002 18.4898 5.00002Z" />
</svg>
