<svg width="28" height="24" viewBox="0 0 28 24" xmlns="http://www.w3.org/2000/svg">
<path fill-rule="evenodd" clip-rule="evenodd" d="M25.4975 10.4L22.7899 1.6H25.7067V0H1.6V1.6H4.5168L1.80907 10.4H0V11.2C0 14.2878 2.51216 16.8 5.6 16.8C8.68784 16.8 11.2 14.2878 11.2 11.2V10.4H9.39088L6.6832 1.6H12.8533V19.2H8.85333V22.4H7.25333V24H20.0533V22.4H18.4533V19.2H14.4533V1.6H20.6235L17.9157 10.4H16.1067V11.2C16.1067 14.2878 18.6188 16.8 21.7067 16.8C24.7945 16.8 27.3067 14.2878 27.3067 11.2V10.4H25.4975ZM3.4832 10.4L5.6 3.52032L7.7168 10.4H3.4832ZM23.8235 10.4L21.7067 3.52032L19.5899 10.4H23.8235Z" />
</svg>
