<svg width="20" height="20" viewBox="0 0 20 20" xmlns="http://www.w3.org/2000/svg">
<path fill-rule="evenodd" clip-rule="evenodd" d="M16.3679 1.81562H12.5688C12.1966 0.762553 11.198 0 10.0133 0C8.82864 0 7.83004 0.762553 7.45787 1.81562H3.65872C2.65562 1.81562 1.84311 2.62809 1.84311 3.63123V18.156C1.84311 19.1591 2.65558 19.9717 3.65872 19.9717H16.3679C17.371 19.9717 18.1835 19.1592 18.1835 18.156V3.63119C18.1835 2.62809 17.371 1.81562 16.3679 1.81562ZM10.0133 1.81562C10.5126 1.81562 10.9211 2.21957 10.9211 2.7234C10.9211 3.22723 10.5126 3.63119 10.0133 3.63119C9.51404 3.63119 9.10549 3.22723 9.10549 2.7234C9.10549 2.21957 9.514 1.81562 10.0133 1.81562ZM3.65868 18.156H16.3679V3.63119H14.5523V6.3546H5.4743V3.63119H3.65868V18.156Z" />
</svg>
