<svg width="192" height="192" viewBox="0 0 192 192" xmlns="http://www.w3.org/2000/svg">
<path d="M65 88H23C10.318 88 0 77.682 0 65V23C0 10.318 10.318 0 23 0H65C77.682 0 88 10.318 88 23V65C88 77.682 77.682 88 65 88ZM23 16C19.14 16 16 19.14 16 23V65C16 68.86 19.14 72 23 72H65C68.86 72 72 68.86 72 65V23C72 19.14 68.86 16 65 16H23Z" />
<path d="M65 192H23C10.318 192 0 181.682 0 169V127C0 114.318 10.318 104 23 104H65C77.682 104 88 114.318 88 127V169C88 181.682 77.682 192 65 192ZM23 120C19.14 120 16 123.14 16 127V169C16 172.86 19.14 176 23 176H65C68.86 176 72 172.86 72 169V127C72 123.14 68.86 120 65 120H23Z" />
<path d="M169 88H127C114.318 88 104 77.682 104 65V23C104 10.318 114.318 0 127 0H169C181.682 0 192 10.318 192 23V65C192 77.682 181.682 88 169 88ZM127 16C123.14 16 120 19.14 120 23V65C120 68.86 123.14 72 127 72H169C172.86 72 176 68.86 176 65V23C176 19.14 172.86 16 169 16H127Z" />
<path d="M179 144H160V117C160 109.832 154.168 104 147 104H117C109.832 104 104 109.832 104 117V147C104 154.168 109.832 160 117 160H144V179C144 186.168 149.832 192 157 192H179C186.168 192 192 186.168 192 179V157C192 149.832 186.168 144 179 144ZM120 120H144V144H120V120ZM176 176H160V160H176V176Z" />
<path d="M48 56H40C35.5815 56 32 52.418 32 48V40C32 35.582 35.5815 32 40 32H48C52.4185 32 56 35.582 56 40V48C56 52.418 52.4185 56 48 56Z" />
<path d="M152 56H144C139.582 56 136 52.418 136 48V40C136 35.582 139.582 32 144 32H152C156.418 32 160 35.582 160 40V48C160 52.418 156.418 56 152 56Z" />
<path d="M48 160H40C35.5815 160 32 156.418 32 152V144C32 139.582 35.5815 136 40 136H48C52.4185 136 56 139.582 56 144V152C56 156.418 52.4185 160 48 160Z" />
</svg>
