<svg width="256" height="256" viewBox="0 0 256 256" xmlns="http://www.w3.org/2000/svg">
<path d="M248 72C243.582 72 240 68.418 240 64V23C240 19.14 236.86 16 233 16H192C187.582 16 184 12.418 184 8C184 3.582 187.582 0 192 0H233C245.682 0 256 10.318 256 23V64C256 68.418 252.418 72 248 72Z" />
<path d="M8 72C3.5815 72 0 68.418 0 64V23C0 10.318 10.318 0 23 0H64C68.4185 0 72 3.582 72 8C72 12.418 68.4185 16 64 16H23C19.14 16 16 19.14 16 23V64C16 68.418 12.4185 72 8 72Z" />
<path d="M64 256H23C10.318 256 0 245.682 0 233V192C0 187.582 3.5815 184 8 184C12.4185 184 16 187.582 16 192V233C16 236.86 19.14 240 23 240H64C68.4185 240 72 243.582 72 248C72 252.418 68.4185 256 64 256Z" />
<path d="M233 256H192C187.582 256 184 252.418 184 248C184 243.582 187.582 240 192 240H233C236.86 240 240 236.86 240 233V192C240 187.582 243.582 184 248 184C252.418 184 256 187.582 256 192V233C256 245.682 245.682 256 233 256Z" />
<path d="M97 120H55C42.318 120 32 109.682 32 97V55C32 42.318 42.318 32 55 32H97C109.682 32 120 42.318 120 55V97C120 109.682 109.682 120 97 120ZM55 48C51.14 48 48 51.14 48 55V97C48 100.86 51.14 104 55 104H97C100.86 104 104 100.86 104 97V55C104 51.14 100.86 48 97 48H55Z" />
<path d="M97 224H55C42.318 224 32 213.682 32 201V159C32 146.318 42.318 136 55 136H97C109.682 136 120 146.318 120 159V201C120 213.682 109.682 224 97 224ZM55 152C51.14 152 48 155.14 48 159V201C48 204.86 51.14 208 55 208H97C100.86 208 104 204.86 104 201V159C104 155.14 100.86 152 97 152H55Z" />
<path d="M201 120H159C146.318 120 136 109.682 136 97V55C136 42.318 146.318 32 159 32H201C213.682 32 224 42.318 224 55V97C224 109.682 213.682 120 201 120ZM159 48C155.14 48 152 51.14 152 55V97C152 100.86 155.14 104 159 104H201C204.86 104 208 100.86 208 97V55C208 51.14 204.86 48 201 48H159Z" />
<path d="M211 176H192V149C192 141.832 186.168 136 179 136H149C141.832 136 136 141.832 136 149V179C136 186.168 141.832 192 149 192H176V211C176 218.168 181.832 224 189 224H211C218.168 224 224 218.168 224 211V189C224 181.832 218.168 176 211 176ZM152 152H176V176H152V152ZM208 208H192V192H208V208Z" />
<path d="M80 88H72C67.5815 88 64 84.418 64 80V72C64 67.582 67.5815 64 72 64H80C84.4185 64 88 67.582 88 72V80C88 84.418 84.4185 88 80 88Z" />
<path d="M184 88H176C171.582 88 168 84.418 168 80V72C168 67.582 171.582 64 176 64H184C188.418 64 192 67.582 192 72V80C192 84.418 188.418 88 184 88Z" />
<path d="M80 192H72C67.5815 192 64 188.418 64 184V176C64 171.582 67.5815 168 72 168H80C84.4185 168 88 171.582 88 176V184C88 188.418 84.4185 192 80 192Z" />
</svg>
