<svg width="24" height="24" viewBox="0 0 24 24" fill="none" xmlns="http://www.w3.org/2000/svg">
<path fill-rule="evenodd" clip-rule="evenodd" d="M0.00239944 1.44092H23.9776V22.5391H0.00239944V1.44092ZM1.0024 2.44092V21.5391H22.9776V2.44092H1.0024Z" />
<path d="M7.81123 7.46899H4.18071C3.76456 7.46899 3.4272 7.80635 3.4272 8.2225C3.4272 8.63865 3.76456 8.976 4.18071 8.976H7.81123C8.22738 8.976 8.56474 8.63865 8.56474 8.2225C8.56474 7.80635 8.22738 7.46899 7.81123 7.46899Z" />
<path d="M6.09872 10.483H4.18071C3.76456 10.483 3.4272 10.8204 3.4272 11.2365C3.4272 11.6527 3.76456 11.99 4.18071 11.99H6.09872C6.51487 11.99 6.85223 11.6527 6.85223 11.2365C6.85223 10.8204 6.51487 10.483 6.09872 10.483Z" />
<path d="M7.81123 13.4971H4.18071C3.76456 13.4971 3.4272 13.8345 3.4272 14.2506C3.4272 14.6668 3.76456 15.0041 4.18071 15.0041H7.81123C8.22738 15.0041 8.56474 14.6668 8.56474 14.2506C8.56474 13.8345 8.22738 13.4971 7.81123 13.4971Z" />
<path d="M12.9489 10.483H9.31841C8.90226 10.483 8.5649 10.8204 8.5649 11.2365C8.5649 11.6527 8.90226 11.99 9.31841 11.99H12.9489C13.3651 11.99 13.7024 11.6527 13.7024 11.2365C13.7024 10.8204 13.3651 10.483 12.9489 10.483Z" />
<path d="M14.6618 13.4971H11.0313C10.6152 13.4971 10.2778 13.8345 10.2778 14.2506C10.2778 14.6668 10.6152 15.0041 11.0313 15.0041H14.6618C15.078 15.0041 15.4153 14.6668 15.4153 14.2506C15.4153 13.8345 15.078 13.4971 14.6618 13.4971Z" />
<path d="M18.087 10.483H16.169C15.7529 10.483 15.4155 10.8204 15.4155 11.2365C15.4155 11.6527 15.7529 11.99 16.169 11.99H18.087C18.5032 11.99 18.8405 11.6527 18.8405 11.2365C18.8405 10.8204 18.5032 10.483 18.087 10.483Z" />
<path d="M19.7989 13.4971H17.8809C17.4648 13.4971 17.1274 13.8345 17.1274 14.2506C17.1274 14.6668 17.4648 15.0041 17.8809 15.0041H19.7989C20.2151 15.0041 20.5524 14.6668 20.5524 14.2506C20.5524 13.8345 20.2151 13.4971 19.7989 13.4971Z" />
<path d="M12.9493 7.46899H11.0313C10.6152 7.46899 10.2778 7.80635 10.2778 8.2225C10.2778 8.63865 10.6152 8.976 11.0313 8.976H12.9493C13.3655 8.976 13.7028 8.63865 13.7028 8.2225C13.7028 7.80635 13.3655 7.46899 12.9493 7.46899Z" />
<path d="M19.7995 7.46899H16.169C15.7529 7.46899 15.4155 7.80635 15.4155 8.2225C15.4155 8.63865 15.7529 8.976 16.169 8.976H19.7995C20.2157 8.976 20.553 8.63865 20.553 8.2225C20.553 7.80635 20.2157 7.46899 19.7995 7.46899Z" />
</svg>
