<svg width="26" height="26" viewBox="0 0 26 26" xmlns="http://www.w3.org/2000/svg">
<path fill-rule="evenodd" clip-rule="evenodd" d="M3.8147e-05 15.6667C3.8147e-05 15.1144 0.447753 14.6667 1.00004 14.6667H25C25.4101 14.6667 25.7787 14.9171 25.9297 15.2983C26.0808 15.6796 25.9838 16.1144 25.6849 16.3953L20.0112 21.7286C19.6087 22.1069 18.9759 22.0873 18.5976 21.6849C18.2194 21.2825 18.2389 20.6496 18.6413 20.2714L22.4762 16.6667H1.00004C0.447753 16.6667 3.8147e-05 16.219 3.8147e-05 15.6667Z" />
<path fill-rule="evenodd" clip-rule="evenodd" d="M26 10.3333C26 10.8856 25.5523 11.3333 25 11.3333H1.00004C0.589939 11.3333 0.221413 11.083 0.0703507 10.7017C-0.0807094 10.3204 0.0163193 9.88559 0.315128 9.60471L5.98891 4.27137C6.39132 3.89311 7.02419 3.91268 7.40245 4.3151C7.78072 4.71751 7.76114 5.35037 7.35873 5.72863L3.52392 9.33334H25C25.5523 9.33334 26 9.78105 26 10.3333Z" />
</svg>
