<svg width="26" height="18" viewBox="0 0 26 18" xmlns="http://www.w3.org/2000/svg">
<path fill-rule="evenodd" clip-rule="evenodd" d="M17 18C16.4477 18 16 17.5523 16 17V1C16 0.657332 16.1755 0.338524 16.465 0.15518C16.7544 -0.0281656 17.1177 -0.050514 17.4274 0.0959589L25.4274 3.87848C25.9267 4.11455 26.1401 4.71068 25.904 5.20997C25.668 5.70926 25.0718 5.92264 24.5726 5.68657L18 2.57896V17C18 17.5523 17.5523 18 17 18Z" />
<path fill-rule="evenodd" clip-rule="evenodd" d="M9 1.95339e-07C9.55229 1.95339e-07 10 0.447715 10 1V17C10 17.3427 9.82454 17.6615 9.53505 17.8448C9.24555 18.0282 8.88234 18.0505 8.57256 17.904L0.572556 14.1215C0.0732673 13.8854 -0.140112 13.2893 0.095959 12.79C0.33203 12.2907 0.928157 12.0774 1.42745 12.3134L8 15.421V1C8 0.447715 8.44772 1.95339e-07 9 1.95339e-07Z" />
</svg>
