<svg width="26" height="26" viewBox="0 0 26 26" xmlns="http://www.w3.org/2000/svg">
<path fill-rule="evenodd" clip-rule="evenodd" d="M17 22C16.4477 22 16 21.5523 16 21V5C16 4.65733 16.1755 4.33853 16.465 4.15518C16.7544 3.97184 17.1177 3.94949 17.4274 4.09596L25.4274 7.87848C25.9267 8.11455 26.1401 8.71068 25.904 9.20997C25.668 9.70926 25.0718 9.92264 24.5726 9.68657L18 6.57896V21C18 21.5523 17.5523 22 17 22Z" />
<path fill-rule="evenodd" clip-rule="evenodd" d="M9 4C9.55229 4 10 4.44771 10 5V21C10 21.3427 9.82454 21.6615 9.53505 21.8448C9.24555 22.0282 8.88234 22.0505 8.57256 21.904L0.572554 18.1215C0.0732653 17.8854 -0.140114 17.2893 0.095957 16.79C0.332028 16.2907 0.928155 16.0774 1.42745 16.3134L8 19.421V5C8 4.44771 8.44772 4 9 4Z" />
</svg>
