<svg width="26" height="18" viewBox="0 0 26 18" xmlns="http://www.w3.org/2000/svg">
<path fill-rule="evenodd" clip-rule="evenodd" d="M3.62793e-05 11.6667C3.62793e-05 11.1144 0.447751 10.6667 1.00004 10.6667H25C25.4101 10.6667 25.7787 10.9171 25.9297 11.2983C26.0808 11.6796 25.9838 12.1144 25.6849 12.3953L20.0112 17.7286C19.6087 18.1069 18.9759 18.0873 18.5976 17.6849C18.2194 17.2825 18.2389 16.6496 18.6413 16.2714L22.4762 12.6667H1.00004C0.447751 12.6667 3.62793e-05 12.219 3.62793e-05 11.6667Z" />
<path fill-rule="evenodd" clip-rule="evenodd" d="M26 6.33334C26 6.88562 25.5523 7.33334 25 7.33334H1.00004C0.589939 7.33334 0.221413 7.08295 0.0703507 6.70169C-0.0807094 6.32043 0.0163193 5.88559 0.315128 5.60471L5.98891 0.271374C6.39132 -0.106891 7.02419 -0.0873162 7.40245 0.315095C7.78072 0.717506 7.76114 1.35037 7.35873 1.72863L3.52392 5.33334H25C25.5523 5.33334 26 5.78105 26 6.33334Z" />
</svg>
