<svg width="24" height="24" viewBox="0 0 24 24" xmlns="http://www.w3.org/2000/svg">
<path fill-rule="evenodd" clip-rule="evenodd" d="M0.0447845 13.0094C0.0157242 12.67 0 12.3268 0 11.9799C0 5.38201 5.37386 0.0141497 11.9791 0.0141497C18.5845 0.0141497 23.9584 5.38201 23.9584 11.9799C23.9584 18.578 18.5845 23.9458 11.9791 23.9458C10.6401 23.9458 9.35178 23.7251 8.10652 23.3059C8.0498 23.2866 7.99372 23.266 7.93488 23.2443C7.9111 23.2356 7.88688 23.2265 7.86198 23.2175C4.42373 21.9613 1.79712 19.2244 0.643951 15.8518C0.631996 15.817 0.620422 15.7821 0.608849 15.7471C0.580048 15.6604 0.551865 15.5736 0.52507 15.486C0.498528 15.3997 0.47274 15.3131 0.448082 15.2259C0.436623 15.185 0.425591 15.1438 0.414558 15.1027L0.407707 15.0771C0.385185 14.9935 0.363678 14.9093 0.343048 14.8249C0.33696 14.8002 0.330765 14.7756 0.32473 14.751C0.321777 14.7389 0.318855 14.7268 0.316002 14.7147C0.287193 14.5917 0.260269 14.468 0.222282 14.2762C0.199509 14.1599 0.178375 14.0427 0.150078 13.8706C0.105797 13.5935 0.0714493 13.3134 0.0447845 13.0094ZM15.4533 10.4028C15.5689 10.6553 15.6448 10.9029 15.681 11.1456C15.7417 11.414 15.7745 11.6935 15.7745 11.9799C15.7745 12.9727 15.395 13.9072 14.7048 14.6182C14.6749 14.6509 14.6431 14.6823 14.6094 14.7122C14.5449 14.7743 14.4791 14.8335 14.4134 14.8884C12.2197 16.8758 10.625 19.4087 9.79018 22.2275C9.75483 22.347 9.83081 22.4729 9.95321 22.4964C10.6094 22.6222 11.2863 22.6892 11.9791 22.6892C17.9002 22.6892 22.7004 17.8946 22.7004 11.9799C22.7004 11.4106 22.6534 10.8526 22.5672 10.3075C22.5655 10.2968 22.563 10.2865 22.5598 10.2766C22.2959 9.17861 22.1564 8.60738 22.1414 8.56297C20.7136 4.32425 16.704 1.2707 11.9791 1.2707C6.40816 1.2707 1.8307 5.51533 1.30865 10.9432C1.29179 11.1191 1.48615 11.2391 1.63484 11.1434C4.63922 9.20721 8.08841 8.18953 11.6891 8.18965C11.7538 8.18965 11.8193 8.19003 11.8844 8.19066C11.9159 8.18965 11.9474 8.1889 11.9791 8.1889C13.2132 8.1889 14.3108 8.78074 15.0044 9.6945C15.0072 9.69821 15.0122 9.7044 15.019 9.71294C15.0807 9.79 15.2952 10.0578 15.4533 10.4028ZM8.57574 21.8987C9.49544 18.774 11.2606 16.0415 13.5888 13.9391C13.6448 13.8932 13.6985 13.8447 13.7741 13.7729C14.2327 13.3133 14.5166 12.6796 14.5166 11.9799C14.5166 10.5802 13.3805 9.44545 11.9791 9.44545C11.957 9.44545 11.9351 9.44621 11.913 9.44697L11.8984 9.44746C11.8287 9.44671 11.7586 9.4462 11.6891 9.4462C7.87167 9.44608 4.29781 10.6953 1.39633 12.8333L1.31029 13.0252C1.31583 13.0807 1.32186 13.1362 1.32815 13.1915C1.77775 17.1671 4.54374 20.6694 8.30088 22.0403C8.41573 22.0822 8.54128 22.0158 8.57574 21.8987Z" />
</svg>
