<svg width="117" height="24" viewBox="0 0 117 24" xmlns="http://www.w3.org/2000/svg">
<path fill-rule="evenodd" clip-rule="evenodd" d="M0.0447845 12.9953C0.0157242 12.6559 0 12.3127 0 11.9658C0 5.36786 5.37386 0 11.9791 0C18.5845 0 23.9584 5.36786 23.9584 11.9658C23.9584 18.5638 18.5845 23.9317 11.9791 23.9317C10.6401 23.9317 9.35178 23.711 8.10652 23.2918C8.0498 23.2725 7.99372 23.2518 7.93488 23.2301C7.9111 23.2214 7.88688 23.2124 7.86198 23.2034C4.42373 21.9472 1.79712 19.2103 0.643951 15.8377C0.631996 15.8029 0.620422 15.768 0.608849 15.733C0.580048 15.6463 0.551865 15.5595 0.52507 15.4719C0.498528 15.3856 0.47274 15.299 0.448082 15.2118C0.436623 15.1709 0.425591 15.1297 0.414558 15.0886L0.407707 15.063C0.385185 14.9794 0.363678 14.8952 0.343048 14.8108C0.33696 14.7861 0.330765 14.7615 0.32473 14.7369C0.321777 14.7248 0.318855 14.7127 0.316002 14.7006C0.287193 14.5776 0.260269 14.4539 0.222282 14.2621C0.199509 14.1458 0.178375 14.0286 0.150078 13.8565C0.105797 13.5794 0.0714493 13.2993 0.0447845 12.9953ZM15.4533 10.3886C15.5689 10.6411 15.6448 10.8888 15.681 11.1315C15.7417 11.3999 15.7745 11.6794 15.7745 11.9658C15.7745 12.9586 15.395 13.8931 14.7048 14.6041C14.6749 14.6368 14.6431 14.6682 14.6094 14.6981C14.5449 14.7602 14.4791 14.8194 14.4134 14.8743C12.2197 16.8617 10.625 19.3946 9.79018 22.2134C9.75483 22.3329 9.83081 22.4587 9.95321 22.4822C10.6094 22.608 11.2863 22.6751 11.9791 22.6751C17.9002 22.6751 22.7004 17.8805 22.7004 11.9658C22.7004 11.3965 22.6534 10.8385 22.5672 10.2934C22.5655 10.2827 22.563 10.2724 22.5598 10.2625C22.2959 9.16446 22.1564 8.59323 22.1414 8.54882C20.7136 4.3101 16.704 1.25655 11.9791 1.25655C6.40816 1.25655 1.8307 5.50118 1.30865 10.9291C1.29179 11.105 1.48615 11.225 1.63484 11.1293C4.63922 9.19306 8.08841 8.17538 11.6891 8.1755C11.7538 8.1755 11.8193 8.17588 11.8844 8.17651C11.9159 8.1755 11.9474 8.17475 11.9791 8.17475C13.2132 8.17475 14.3108 8.76659 15.0044 9.68035C15.0072 9.68406 15.0122 9.69025 15.019 9.69879C15.0807 9.77585 15.2952 10.0436 15.4533 10.3886ZM8.57574 21.8846C9.49544 18.7599 11.2606 16.0274 13.5888 13.925C13.6448 13.8791 13.6985 13.8305 13.7741 13.7587C14.2327 13.2991 14.5166 12.6655 14.5166 11.9658C14.5166 10.5661 13.3805 9.4313 11.9791 9.4313C11.957 9.4313 11.9351 9.43206 11.913 9.43282L11.8984 9.43331C11.8287 9.43256 11.7586 9.43205 11.6891 9.43205C7.87167 9.43193 4.29781 10.6811 1.39633 12.8191L1.31029 13.0111C1.31583 13.0666 1.32186 13.122 1.32815 13.1773C1.77775 17.1529 4.54374 20.6553 8.30088 22.0262C8.41573 22.0681 8.54128 22.0017 8.57574 21.8846Z" />
<path d="M35.6273 14.9144H32.4365C32.4365 17.6887 34.6071 19.6799 37.8631 19.6799C40.5113 19.6799 43.2029 18.2257 43.2463 15.1605C43.2897 13.6839 42.7687 11.5809 39.1438 10.507L37.3638 9.9253C35.9095 9.50021 35.7576 8.7619 35.7576 8.35918C35.7576 7.44189 36.5824 6.81545 37.6894 6.81545C38.9484 6.81545 39.6213 7.53138 39.6213 8.56054H42.7904C42.7904 5.60731 40.6198 3.83984 37.7328 3.83984C34.8676 3.83984 32.5884 5.6968 32.5884 8.44868C32.5884 9.8358 33.1528 11.827 36.4522 12.8785L38.2538 13.3931C39.7732 13.8405 40.0771 14.4446 40.0554 15.1382C40.0337 16.145 39.1438 16.7714 37.8631 16.7714C36.4305 16.7714 35.6707 15.8989 35.6273 14.9144Z" />
<path d="M56.9924 18.8409L60.6684 8.88086H57.3511L55.4907 14.8099L53.6527 8.88086H50.9854L49.1474 14.8099L47.287 8.88086H43.9697L47.7577 18.8409H50.3578L52.3302 12.5066L54.3924 18.8409H56.9924Z" />
<path d="M65.8335 18.8409V8.88086H62.4697V18.8409H65.8335Z" />
<path d="M63.6949 3.11914C62.5788 3.11914 61.6289 3.84062 61.6289 4.78885C61.6289 5.73707 62.5788 6.47916 63.6949 6.47916C64.8111 6.47916 65.7135 5.73707 65.7135 4.78885C65.7135 3.84062 64.8111 3.11914 63.6949 3.11914Z" />
<path d="M71.2308 19.0802V13.4256C71.2308 11.8002 72.0598 11.2507 73.1578 11.2507C74.2109 11.2507 74.9728 11.9604 74.9728 13.3798V19.0802H78.0874V12.693C78.0874 9.64822 76.6085 8.16016 74.2557 8.16016C73.0234 8.16016 71.7909 8.86985 71.2308 9.94583V8.38909H68.1162V19.0802H71.2308Z" />
<path fill-rule="evenodd" clip-rule="evenodd" d="M84.9627 21.2115C83.9623 21.2115 82.7917 20.4976 82.4512 19.5382C82.0787 19.7279 81.6689 19.9399 81.2591 20.1518C80.8495 20.3638 80.4398 20.5757 80.0674 20.7653C80.8975 22.7062 82.7705 24.0002 84.9627 24.0002C88.4958 24.0002 90.5816 21.8362 90.5816 17.3518V8.38326H87.7083V9.67724C87.2188 8.71791 85.963 8.16016 84.7286 8.16016C82.1745 8.16016 79.7695 10.2796 79.7695 13.6261C79.7695 16.9056 82.1745 19.0251 84.7286 19.0251C85.963 19.0251 87.2401 18.4673 87.7083 17.508C87.836 19.5828 87.2188 21.2115 84.9627 21.2115ZM85.7052 11.4001C86.9749 11.4001 88.1789 12.3002 88.1789 13.8752C88.1789 15.4052 86.953 16.4402 85.7052 16.4402C84.4136 16.4402 83.2534 15.4502 83.2534 13.8752C83.2534 12.3902 84.4136 11.4001 85.7052 11.4001Z" />
<path fill-rule="evenodd" clip-rule="evenodd" d="M94.0654 18.7425H97.0436V17.4857C97.54 18.4175 98.7485 18.9592 99.9998 18.9592C102.59 18.9592 104.878 16.9006 104.878 13.7153C104.878 10.4649 102.59 8.40639 99.9998 8.40639C98.7485 8.40639 97.54 8.92645 97.0436 9.85822V3.11914H94.0654V18.7425ZM99.1711 16.4392C97.8486 16.4392 96.7084 15.4042 96.7084 13.8967C96.7084 12.3217 97.8714 11.3991 99.1711 11.3991C100.517 11.3991 101.634 12.3892 101.634 13.8967C101.634 15.4492 100.517 16.4392 99.1711 16.4392Z" />
<path d="M110.34 23.9998L116.531 8.75977H113.35L111.114 14.5624L108.9 8.75977H105.719L109.588 17.9344L107.18 23.9998H110.34Z" />
</svg>
