<svg width="24" height="24" viewBox="0 0 24 24" xmlns="http://www.w3.org/2000/svg">
<path fill-rule="evenodd" clip-rule="evenodd" d="M14.7574 7.82839C13.967 7.30487 13.0191 7 12 7C9.23858 7 7 9.23857 7 12C7 13.0191 7.30488 13.967 7.8284 14.7574L14.7574 7.82839ZM12 0C12.5523 0 13 0.447715 13 1V3C13 3.55228 12.5523 4 12 4C11.4477 4 11 3.55228 11 3V1C11 0.447715 11.4477 0 12 0ZM4.92711 3.51289C4.53658 3.12237 3.90342 3.12237 3.51289 3.51289C3.12237 3.90342 3.12237 4.53658 3.51289 4.92711L4.93289 6.34711C5.32342 6.73763 5.95658 6.73763 6.34711 6.34711C6.73763 5.95658 6.73763 5.32342 6.34711 4.93289L4.92711 3.51289ZM1 11C0.447715 11 0 11.4477 0 12C0 12.5523 0.447715 13 1 13H3C3.55228 13 4 12.5523 4 12C4 11.4477 3.55228 11 3 11H1Z" />
<path fill-rule="evenodd" clip-rule="evenodd" d="M4.56729 20.8469C9.76815 25.0542 17.4026 24.3335 21.7203 19.1879C22.7687 17.9385 23.5262 16.5418 24 15.0802C19.9955 17.2061 15.0051 16.9979 11.1436 14.2706L4.56729 20.8469Z" />
</svg>
