<svg width="24" height="24" viewBox="0 0 24 24" xmlns="http://www.w3.org/2000/svg">
<path d="M24 4.80507C23.117 5.19707 22.168 5.46107 21.172 5.58007C22.189 4.97107 22.97 4.00607 23.337 2.85607C22.386 3.42007 21.332 3.83007 20.21 4.05107C19.313 3.09407 18.032 2.49607 16.616 2.49607C13.437 2.49607 11.101 5.46207 11.819 8.54107C7.728 8.33607 4.1 6.37607 1.671 3.39707C0.381 5.61007 1.002 8.50507 3.194 9.97107C2.388 9.94507 1.628 9.72407 0.965 9.35507C0.911 11.6361 2.546 13.77 4.914 14.245C4.221 14.433 3.462 14.477 2.69 14.329C3.316 16.285 5.134 17.708 7.29 17.748C5.22 19.371 2.612 20.096 0 19.788C2.179 21.185 4.768 22 7.548 22C16.69 22 21.855 14.279 21.543 7.35407C22.505 6.65907 23.34 5.79207 24 4.80507Z" />
</svg>
