<svg width="300" height="300" viewBox="0 0 300 300" fill="none" xmlns="http://www.w3.org/2000/svg">
<path d="M61.4385 94.0038C110.35 46.1156 189.651 46.1156 238.562 94.0038L244.448 99.7672C246.894 102.162 246.894 106.044 244.448 108.438L224.312 128.154C223.089 129.351 221.106 129.351 219.884 128.154L211.783 120.222C177.661 86.8145 122.339 86.8145 88.2174 120.222L79.5423 128.716C78.3195 129.913 76.337 129.913 75.1142 128.716L54.9775 109.001C52.532 106.606 52.532 102.724 54.9775 100.33L61.4385 94.0038ZM280.206 134.778L298.128 152.324C300.574 154.719 300.574 158.601 298.128 160.995L217.318 240.116C214.872 242.511 210.907 242.511 208.462 240.117C208.462 240.117 208.462 240.117 208.462 240.117L151.108 183.962C150.496 183.363 149.505 183.363 148.894 183.962C148.894 183.962 148.894 183.962 148.894 183.962L91.5406 240.116C89.0951 242.511 85.13 242.511 82.6844 240.117C82.6844 240.117 82.6844 240.117 82.6844 240.117L1.87197 160.994C-0.573594 158.6 -0.573594 154.718 1.87197 152.323L19.7937 134.777C22.2393 132.382 26.2043 132.382 28.6499 134.777L86.0048 190.932C86.6162 191.531 87.6075 191.531 88.2189 190.932C88.2189 190.932 88.2189 190.932 88.2189 190.932L145.571 134.777C148.017 132.382 151.982 132.382 154.427 134.776C154.427 134.776 154.427 134.776 154.427 134.776L211.782 190.932C212.394 191.53 213.385 191.53 213.996 190.932L271.35 134.778C273.796 132.383 277.761 132.383 280.206 134.778Z" />
</svg>
