<svg viewBox="0 0 19 19" xmlns="http://www.w3.org/2000/svg">
<path d="M15.7718 0.135076H2.49712C1.6295 0.135076 1.0112 0.442885 0.599714 0.896208C0.193556 1.34366 -0.00867623 1.94283 -7.53424e-05 2.54085C0.000216528 2.54597 0.000328008 2.55111 0.000258888 2.55624V6.22524C0.0670829 6.10838 0.141884 5.99585 0.225598 5.88895C0.593386 5.41935 1.13373 5.06778 1.84426 4.93271V4.34178C1.84426 3.78964 2.02076 3.28388 2.31704 2.90789C2.61335 2.53193 3.03996 2.28276 3.51673 2.28276H14.7522C15.2287 2.28276 15.6554 2.53127 15.9518 2.90701C16.2482 3.28275 16.4247 3.78862 16.4247 4.34178V4.80707C16.9483 4.69659 17.3514 4.45261 17.6493 4.1337C18.0609 3.69309 18.2703 3.09977 18.2703 2.50354C18.2703 1.9073 18.0609 1.31399 17.6493 0.873357C17.2377 0.432751 16.6254 0.13501 15.7718 0.13501V0.135076Z" />
<path d="M14.6093 2.70654H3.39012C3.06939 2.70654 2.77158 2.87215 2.5429 3.16424C2.31422 3.45632 2.16508 3.87188 2.16508 4.33233V4.87187C2.22773 4.86825 2.29148 4.86616 2.35633 4.8657C2.36152 4.86537 2.36671 4.86522 2.37191 4.86525H2.38517H15.6273C15.698 4.86525 15.7669 4.86297 15.8342 4.85895V4.33224C15.8342 3.87059 15.6851 3.45512 15.4565 3.16339C15.2279 2.87164 14.9301 2.70645 14.6092 2.70645L14.6093 2.70654Z" />
<path d="M18.2703 4.05981C18.1846 4.19259 18.0866 4.31888 17.9758 4.43664C17.4803 4.96345 16.7319 5.31065 15.7713 5.31065H2.50981C1.57695 5.31065 0.973525 5.64831 0.577126 6.15101C0.180726 6.65372 -0.000338554 7.33979 -0.000338554 8.02314V8.43567C0.13692 8.58385 0.291959 8.64018 0.499829 8.66779C0.711532 8.6959 0.967977 8.68182 1.24196 8.6895H6.50175C7.44322 8.6895 8.17764 9.05034 8.66053 9.59291C9.14343 10.1355 9.3794 10.8494 9.3794 11.5603C9.3794 12.2712 9.14343 12.9851 8.66053 13.5277C8.17764 14.0703 7.44322 14.4311 6.50175 14.4311H1.24196C0.991574 14.4311 0.684459 14.414 0.392875 14.3445C0.257667 14.3122 0.122837 14.2688 -0.000338554 14.2064V15.7366C-0.000338554 17.0568 1.09528 18.135 2.43664 18.135H15.8334C17.1747 18.135 18.2703 17.0568 18.2703 15.7366V4.05981Z" />
<path d="M-0.000338554 8.93201C0.142268 9.0016 0.298308 9.04251 0.445236 9.06197C0.720557 9.09846 0.990086 9.07533 1.23892 9.08255C1.24122 9.08258 1.24352 9.08258 1.24582 9.08255H6.50223C7.33051 9.08255 7.92432 9.38411 8.3263 9.83504C8.7283 10.286 8.93199 10.8973 8.93199 11.511C8.93199 12.1248 8.7283 12.7361 8.3263 13.187C7.92432 13.638 7.33051 13.9395 6.50223 13.9395H1.24582C1.01751 13.9395 0.737355 13.9207 0.500889 13.8643C0.264422 13.808 0.0867268 13.7125 0.0135411 13.6043C0.00914098 13.5996 0.00453228 13.5951 -0.000338554 13.5907V8.93214L-0.000338554 8.93201ZM6.42568 10.3549C5.79588 10.3549 5.27694 10.8573 5.27694 11.4768C5.27694 12.098 5.79588 12.6055 6.42568 12.6055C7.05552 12.6055 7.56746 12.0973 7.56746 11.4768C7.56746 10.8579 7.05552 10.3549 6.42568 10.3549Z" />
</svg>
