<svg width="17" height="17" viewBox="0 0 17 17" fill="none" xmlns="http://www.w3.org/2000/svg">
<path d="M8.5 17C13.1944 17 17 13.1944 17 8.5C17 3.80558 13.1944 0 8.5 0C3.80558 0 0 3.80558 0 8.5C0 13.1944 3.80558 17 8.5 17Z" fill="url(#paint0_linear)"/>
<mask id="mask0" mask-type="alpha" maskUnits="userSpaceOnUse" x="0" y="0" width="17" height="17">
<path d="M8.5 17C13.1944 17 17 13.1944 17 8.5C17 3.80558 13.1944 0 8.5 0C3.80558 0 0 3.80558 0 8.5C0 13.1944 3.80558 17 8.5 17Z" fill="url(#paint1_linear)"/>
</mask>
<g mask="url(#mask0)">
<path d="M5.69347 16.9557C2.50789 15.8471 0.18488 12.8965 0 9.37923C2.35687 7.74825 5.21861 6.80129 8.26767 6.8014C8.32535 6.8014 8.38349 6.8018 8.44129 6.80242C8.44537 6.80231 8.44945 6.80214 8.45353 6.80203C8.47178 6.8014 8.48997 6.80078 8.50827 6.80078C9.67073 6.80078 10.6131 7.72864 10.6131 8.87314C10.6131 9.4453 10.3776 9.96335 9.99725 10.3392C9.93452 10.3979 9.88998 10.4376 9.84351 10.4751C7.91928 12.188 6.45864 14.4123 5.69347 16.9557Z" fill="url(#paint2_linear)"/>
</g>
<defs>
<linearGradient id="paint0_linear" x1="8.5" y1="0" x2="8.5" y2="17" gradientUnits="userSpaceOnUse">
<stop stop-color="#1D173A"/>
<stop offset="1" stop-color="#102176"/>
</linearGradient>
<linearGradient id="paint1_linear" x1="8.5" y1="0" x2="8.5" y2="17" gradientUnits="userSpaceOnUse">
<stop stop-color="#1D173C"/>
<stop offset="1" stop-color="#152170"/>
</linearGradient>
<linearGradient id="paint2_linear" x1="5.30656" y1="6.80078" x2="5.30656" y2="16.9557" gradientUnits="userSpaceOnUse">
<stop stop-color="#36DBFD"/>
<stop offset="1" stop-color="#0085FF"/>
</linearGradient>
</defs>
</svg>
