<svg width="500" height="502" viewBox="0 0 500 502" fill="none" xmlns="http://www.w3.org/2000/svg">
<circle cx="250" cy="251" r="250" fill="white"/>
<path fill-rule="evenodd" clip-rule="evenodd" d="M407.696 105.175L393.969 118.925C461.866 193.35 461.866 307.425 393.969 381.84L407.696 395.59C483.264 313.472 483.264 186.952 407.696 104.84" fill="#837F8B"/>
<path fill-rule="evenodd" clip-rule="evenodd" d="M118.937 106.37C193.187 38.3099 306.992 38.3099 381.247 106.37L394.974 92.6074C313.042 16.8574 186.819 16.8574 104.887 92.6074" fill="#837F8B"/>
<path fill-rule="evenodd" clip-rule="evenodd" d="M106.124 382.001C38.3094 307.593 38.3094 193.628 106.124 119.221L92.3944 105.471C16.8269 187.593 16.8269 314.106 92.3944 396.221" fill="#837F8B"/>
<path fill-rule="evenodd" clip-rule="evenodd" d="M381.109 394.693C306.859 462.753 193.052 462.753 118.799 394.693L105.069 408.443C187.004 484.193 313.224 484.193 395.159 408.443" fill="#837F8B"/>
<path fill-rule="evenodd" clip-rule="evenodd" d="M291.596 215.534C291.596 243.054 248.671 239.707 235.034 239.707V191.224C248.671 191.224 291.596 186.912 291.596 215.534ZM302.809 290.802C302.809 320.892 251.371 317.452 234.989 317.452V264.062C251.371 264.107 302.809 259.384 302.809 290.812V290.802ZM336.674 204.662C333.924 175.949 309.216 166.317 277.961 163.382V123.797H253.796V162.602C247.436 162.602 240.939 162.602 234.486 162.832V123.797H210.461V163.612H161.499V189.527C161.499 189.527 179.346 189.204 179.071 189.527C182.293 189.175 185.525 190.087 188.087 192.072C190.648 194.057 192.338 196.96 192.801 200.167V309.197C192.733 310.32 192.445 311.418 191.952 312.429C191.459 313.441 190.772 314.345 189.93 315.091C189.088 315.836 188.107 316.409 187.043 316.775C185.98 317.142 184.854 317.295 183.731 317.227C183.704 317.229 183.676 317.229 183.649 317.227C183.969 317.502 166.076 317.227 166.076 317.227L161.271 346.172H210.049V386.627H234.211V346.762H253.524V386.437H277.731V346.437C318.551 343.959 347.016 333.867 350.584 295.569C353.469 264.749 338.999 250.999 315.896 245.439C329.946 238.284 338.779 225.669 336.674 204.662Z" fill="#F7931A"/>
<path fill-rule="evenodd" clip-rule="evenodd" d="M249.955 19.54C122.725 19.6175 19.645 123.055 19.7225 250.577C19.8 378.1 123 481.417 250.223 481.34C377.363 481.265 480.403 377.963 480.453 250.533C480.3 123.033 377.158 19.7275 249.952 19.6775L249.955 19.54ZM249.955 501.155C111.885 501.132 -0.0274949 388.925 5.06705e-06 250.533C0.0275051 112.14 111.975 -0.0274949 250.045 5.05553e-06C388.115 0.0275051 499.977 112.175 500 250.533C499.85 388.883 388 501 249.955 501.155V501.155Z" fill="black"/>
</svg>

