<svg width="33" height="33" viewBox="0 0 33 33" fill="none" xmlns="http://www.w3.org/2000/svg">
<path fill-rule="evenodd" clip-rule="evenodd" d="M16.5 0C20.9073 0 25.0508 1.71632 28.1673 4.8327C31.2837 7.9492 33 12.0927 33 16.5C33 20.9073 31.2837 25.0509 28.1673 28.1673C25.0508 31.2837 20.9073 33 16.5 33C12.0927 33 7.94913 31.2837 4.8327 28.1673C1.71632 25.0508 0 20.9073 0 16.5C0 12.0927 1.71626 7.94913 4.8327 4.8327C7.9492 1.71632 12.0927 0 16.5 0ZM4.125 16.5C4.125 23.3236 9.67641 28.875 16.5 28.875C23.3236 28.875 28.875 23.3236 28.875 16.5C28.875 9.67641 23.3236 4.125 16.5 4.125C9.67641 4.125 4.125 9.67641 4.125 16.5ZM16.5 6.02882C10.7262 6.02882 6.02882 10.7262 6.02882 16.5C6.02882 22.2738 10.7262 26.9712 16.5 26.9712C22.2738 26.9712 26.9712 22.2738 26.9712 16.5C26.9712 10.7262 22.2738 6.02882 16.5 6.02882ZM22.2099 16.5531L16.5531 10.8962L10.8962 16.5531L16.5531 22.2099L22.2099 16.5531Z" fill="#FFBF42"/>
</svg>
