<svg width="511" height="511" viewBox="0 0 511 511" fill="none" xmlns="http://www.w3.org/2000/svg">
<path d="M255.5 511C396.609 511 511 396.609 511 255.5C511 114.391 396.609 0 255.5 0C114.391 0 0 114.391 0 255.5C0 396.609 114.391 511 255.5 511Z" fill="url(#paint0_linear)"/>
<mask id="mask0" mask-type="alpha" maskUnits="userSpaceOnUse" x="0" y="0" width="511" height="511">
<path d="M255.5 511C396.609 511 511 396.609 511 255.5C511 114.391 396.609 0 255.5 0C114.391 0 0 114.391 0 255.5C0 396.609 114.391 511 255.5 511Z" fill="url(#paint1_linear)"/>
</mask>
<g mask="url(#mask0)">
<path d="M171.139 509.666C75.3841 476.344 5.55726 387.651 0 281.927C70.8449 232.902 156.865 204.437 248.516 204.441C250.25 204.441 251.998 204.453 253.735 204.471C253.858 204.468 253.981 204.463 254.103 204.459C254.652 204.441 255.198 204.422 255.749 204.422C290.691 204.422 319.017 232.312 319.017 266.714C319.017 283.913 311.938 299.485 300.505 310.783C298.62 312.546 297.281 313.742 295.884 314.868C238.044 366.356 194.139 433.215 171.139 509.666Z" fill="url(#paint2_linear)"/>
<path d="M376.843 224.078C381.922 190.078 356.034 171.799 320.631 159.606L332.129 113.551L304.085 106.566L292.883 151.41C285.519 149.575 277.951 147.833 270.429 146.126L281.672 100.986L253.653 94L242.191 140.037L185.639 126.03L178.179 155.986C178.179 155.986 198.982 160.754 198.542 161.05C209.897 163.886 211.957 171.398 211.609 177.356L180.146 303.525C178.756 306.975 175.235 312.146 167.299 310.169C167.58 310.577 146.92 305.058 146.92 305.058L133 337.191L189.467 351.448L177.862 398.04L205.865 405.025L217.363 358.935C225.028 361.009 232.438 362.926 239.699 364.729L228.248 410.606L256.287 417.591L267.892 371.089C315.705 380.134 351.66 376.485 366.773 333.274C378.966 298.461 366.175 278.378 341.018 265.276C359.338 261.035 373.135 248.99 376.817 224.096L376.843 224.078ZM312.759 313.912C304.072 348.725 245.471 329.912 226.457 325.185L241.853 263.467C260.858 268.209 321.799 277.602 312.769 313.907L312.759 313.912ZM321.456 223.585C313.551 255.268 264.757 239.171 248.921 235.221L262.861 179.237C278.703 183.192 329.679 190.556 321.436 223.59" fill="white"/>
</g>
<defs>
<linearGradient id="paint0_linear" x1="255.5" y1="0" x2="255.5" y2="511" gradientUnits="userSpaceOnUse">
<stop stop-color="#1D173A"/>
<stop offset="1" stop-color="#102176"/>
</linearGradient>
<linearGradient id="paint1_linear" x1="255.5" y1="0" x2="255.5" y2="511" gradientUnits="userSpaceOnUse">
<stop stop-color="#1D173C"/>
<stop offset="1" stop-color="#152170"/>
</linearGradient>
<linearGradient id="paint2_linear" x1="159.509" y1="204.422" x2="159.509" y2="509.666" gradientUnits="userSpaceOnUse">
<stop stop-color="#36DBFD"/>
<stop offset="1" stop-color="#0085FF"/>
</linearGradient>
</defs>
</svg>
