<svg width="35" height="35" viewBox="0 0 35 35" fill="none" xmlns="http://www.w3.org/2000/svg">
<path fill-rule="evenodd" clip-rule="evenodd" d="M28.1673 6.8327C25.0508 3.71632 20.9073 2 16.5 2C12.0927 2 7.9492 3.71632 4.8327 6.8327C1.71626 9.94913 0 14.0927 0 18.5C0 22.9073 1.71632 27.0508 4.8327 30.1673C7.94913 33.2837 12.0927 35 16.5 35C20.9073 35 25.0508 33.2837 28.1673 30.1673C31.2837 27.0509 33 22.9073 33 18.5C33 14.0927 31.2837 9.9492 28.1673 6.8327ZM16.5 30.875C9.67641 30.875 4.125 25.3236 4.125 18.5C4.125 11.6764 9.67641 6.125 16.5 6.125C23.3236 6.125 28.875 11.6764 28.875 18.5C28.875 25.3236 23.3236 30.875 16.5 30.875ZM16.5 8.02882C10.7262 8.02882 6.02882 12.7262 6.02882 18.5C6.02882 24.2738 10.7262 28.9712 16.5 28.9712C22.2738 28.9712 26.9712 24.2738 26.9712 18.5C26.9712 12.7262 22.2738 8.02882 16.5 8.02882ZM20.625 16.7152C20.625 17.3968 20.374 18.0205 19.9603 18.5C20.374 18.9796 20.625 19.6033 20.625 20.2848V20.6815C20.625 22.1905 19.3973 23.4183 17.8882 23.4183H17.4519V24.8462C17.4519 25.3719 17.0257 25.7981 16.5 25.7981C15.9743 25.7981 15.5481 25.3719 15.5481 24.8462V23.4183H13.3269C12.8012 23.4183 12.375 22.9921 12.375 22.4664V14.5337C12.375 14.0079 12.8012 13.5818 13.3269 13.5818H15.5481V12.1539C15.5481 11.6281 15.9743 11.202 16.5 11.202C17.0257 11.202 17.4519 11.6282 17.4519 12.1539V13.5818H17.8882C19.3972 13.5818 20.625 14.8095 20.625 16.3186V16.7152ZM14.2788 19.4519H17.8882C18.3475 19.4519 18.7212 19.8256 18.7211 20.2848V20.6815C18.7211 21.1408 18.3475 21.5144 17.8882 21.5144H14.2788V19.4519ZM17.8882 15.4856H14.2788V17.5481H17.8882C18.3475 17.5481 18.7211 17.1745 18.7211 16.7152V16.3185C18.7212 15.8592 18.3475 15.4856 17.8882 15.4856Z" fill="#6739FF"/>
<circle cx="24.1466" cy="10.8537" r="9.85366" fill="#FFBF42" stroke="white" stroke-width="2"/>
<path fill-rule="evenodd" clip-rule="evenodd" d="M24.1465 6.30078L28.6996 10.8539L24.1465 15.4069L19.5934 10.8539L24.1465 6.30078Z" fill="white"/>
</svg>
