<svg width="15" height="16" viewBox="0 0 15 16" fill="none" xmlns="http://www.w3.org/2000/svg">
<path d="M14.7752 10.2258C13.7741 14.2433 9.70378 16.6885 5.68504 15.6859C1.66631 14.6833 -0.777845 10.6147 0.224927 6.59684C1.2277 2.57893 5.29586 0.132599 9.31369 1.1356C13.3315 2.13859 15.7779 6.20668 14.7752 10.2258Z" fill="#E5E8E9"/>
<path d="M7.52048 3.49432L7.45435 3.71927V10.2456L7.52048 10.3117L10.5498 8.52109L7.52048 3.49432Z" fill="#343434"/>
<path d="M7.52048 3.49432L4.49118 8.52108L7.52048 10.3118V3.49432Z" fill="#8C8C8C"/>
<path d="M7.52048 10.8854L7.48317 10.9309V13.2561L7.52048 13.3647L10.5516 9.09573L7.52048 10.8854Z" fill="#3C3C3B"/>
<path d="M7.52048 13.3647V10.8853L4.49118 9.09573L7.52048 13.3647Z" fill="#8C8C8C"/>
<path d="M7.52048 10.3118L10.5497 8.52108L7.52048 7.14417V10.3118Z" fill="#141414"/>
<path d="M4.49118 8.52108L7.52039 10.3118V7.14407" fill="#393939"/>
</svg>
