<svg width="524" height="524" viewBox="0 0 524 524" fill="none" xmlns="http://www.w3.org/2000/svg">
<path d="M503.345 329.335C469.24 466.199 330.577 549.5 193.671 515.343C56.7657 481.187 -26.4987 342.585 7.66253 205.708C41.8237 68.8307 180.413 -14.5079 317.288 19.661C454.163 53.8299 537.501 192.417 503.345 329.335Z" fill="#F7931A"/>
<path d="M368.181 231.092C373.261 197.092 347.373 178.813 311.97 166.62L323.468 120.565L295.423 113.579L284.222 158.423C276.858 156.589 269.29 154.846 261.768 153.14L273.01 107.999L244.992 101.014L233.53 147.051L176.978 133.044L169.518 163C169.518 163 190.321 167.767 189.881 168.064C201.236 170.9 203.295 178.412 202.948 184.37L171.485 310.539C170.095 313.988 166.574 319.16 158.638 317.182C158.919 317.591 138.259 312.072 138.259 312.072L124.339 344.205L180.806 358.462L169.201 405.053L197.204 412.039L208.702 365.948C216.367 368.023 223.777 369.939 231.038 371.743L219.587 417.619L247.626 424.605L259.231 378.103C307.044 387.148 342.999 383.499 358.112 340.288C370.305 305.475 357.514 285.392 332.357 272.29C350.677 268.048 364.474 256.004 368.156 231.11L368.181 231.092ZM304.098 320.925C295.411 355.738 236.81 336.925 217.795 332.198L233.192 270.481C252.197 275.223 313.138 284.615 304.108 320.92L304.098 320.925ZM312.795 230.599C304.89 262.282 256.096 246.185 240.26 242.235L254.2 186.251C270.041 190.206 321.017 197.57 312.775 230.604" fill="white"/>
<circle cx="379" cy="144" r="138" fill="#FFBF42" stroke="white" stroke-width="12"/>
<path fill-rule="evenodd" clip-rule="evenodd" d="M378.998 76.1211L446.88 144.003L378.998 211.886L311.116 144.003L378.998 76.1211Z" fill="white"/>
</svg>
