<svg width="511" height="511" viewBox="0 0 511 511" fill="none" xmlns="http://www.w3.org/2000/svg">
<path d="M503.348 317.339C469.243 454.203 330.58 537.503 193.674 503.347C56.7687 469.191 -26.4957 330.589 7.66546 193.712C41.8267 56.8346 180.416 -26.5039 317.291 7.66492C454.165 41.8338 537.504 180.42 503.348 317.339Z" fill="#F7931A"/>
<path d="M368.184 219.096C373.264 185.096 347.376 166.817 311.973 154.624L323.471 108.569L295.426 101.583L284.225 146.427C276.861 144.593 269.293 142.85 261.771 141.143L273.013 96.0031L244.994 89.0176L233.532 135.055L176.981 121.048L169.52 151.003C169.52 151.003 190.324 155.771 189.884 156.068C201.239 158.904 203.298 166.416 202.951 172.374L171.488 298.543C170.098 301.992 166.577 307.164 158.641 305.186C158.922 305.595 138.262 300.076 138.262 300.076L124.342 332.209L180.809 346.466L169.204 393.057L197.207 400.043L208.705 353.952C216.37 356.027 223.78 357.943 231.041 359.747L219.589 405.623L247.629 412.609L259.234 366.107C307.047 375.151 343.002 371.503 358.115 328.292C370.308 293.479 357.517 273.396 332.36 260.294C350.68 256.052 364.477 244.008 368.159 219.114L368.184 219.096ZM304.101 308.929C295.414 343.742 236.813 324.929 217.798 320.202L233.195 258.485C252.2 263.227 313.141 272.619 304.111 308.924L304.101 308.929ZM312.798 218.603C304.893 250.286 256.099 234.189 240.263 230.238L254.203 174.255C270.044 178.21 321.02 185.573 312.778 218.608" fill="white"/>
</svg>

