<svg width="45" height="45" viewBox="0 0 45 45" fill="none" xmlns="http://www.w3.org/2000/svg">
<circle cx="22.5" cy="22.5" r="22.5" fill="#25C1D0" fill-opacity="0.5"/>
<path fill-rule="evenodd" clip-rule="evenodd" d="M14.1625 13.4643C13.7518 11.3286 15.3946 9.35714 17.5304 9.35714C19.4196 9.35714 20.9804 10.9179 20.9804 12.8071V17.0786C21.4732 17.0786 21.9661 16.9964 22.4589 16.9964C22.9518 16.9964 23.3625 16.9964 23.8554 17.0786V12.8071C23.8554 10.9179 25.4161 9.35714 27.3054 9.35714C29.4411 9.35714 31.0839 11.3286 30.7554 13.4643L29.8518 18.475C33.0554 19.8714 35.5196 22.3357 35.5196 25.375V27.2643C35.5196 29.8107 33.8768 31.9464 31.4946 33.3429C29.1125 34.8214 25.9911 35.6429 22.4589 35.6429C18.9268 35.6429 15.8054 34.8214 13.4232 33.3429C11.1232 31.9464 9.48035 29.8107 9.48035 27.2643V25.375C9.48035 22.3357 11.8625 19.8714 15.0661 18.475L14.1625 13.4643ZM28.6196 19.1321L29.6875 13.2179C29.9339 11.7393 28.8661 10.3429 27.3054 10.3429C25.9911 10.3429 24.9232 11.4107 24.9232 12.725V18.1464C24.5946 18.0643 24.1839 18.0643 23.8554 18.0643C23.3625 18.0643 22.9518 17.9821 22.4589 17.9821C21.9661 17.9821 21.4732 17.9821 20.9804 18.0643C20.6518 18.0643 20.2411 18.1464 19.9125 18.1464V12.8071C19.9125 11.4929 18.8446 10.425 17.5304 10.425C16.0518 10.425 14.9018 11.8214 15.2304 13.3L16.2982 19.2143C12.8482 20.5286 10.5482 22.8286 10.5482 25.4571V27.3464C10.5482 31.3714 15.8875 34.6571 22.4589 34.6571C29.0304 34.6571 34.3696 31.3714 34.3696 27.3464V25.4571C34.4518 22.7464 32.1518 20.4464 28.6196 19.1321Z" fill="#633001"/>
<path d="M34.4518 27.2643C34.4518 31.2893 29.1125 34.575 22.5411 34.575C15.9696 34.575 10.6304 31.2893 10.6304 27.2643V25.375H34.5339V27.2643H34.4518Z" fill="#FEDC90"/>
<path fill-rule="evenodd" clip-rule="evenodd" d="M15.2304 13.3C14.9018 11.8214 16.0518 10.425 17.5304 10.425C18.8446 10.425 19.9125 11.4929 19.9125 12.8071V18.2286C20.7339 18.1464 21.5554 18.0643 22.4589 18.0643C23.2804 18.0643 24.1018 18.1464 24.9232 18.2286V12.8071C24.9232 11.4929 25.9911 10.425 27.3054 10.425C28.7839 10.425 29.9339 11.8214 29.6875 13.3L28.6196 19.2143C32.0696 20.5286 34.4518 22.8286 34.4518 25.4571C34.4518 29.4821 29.1125 32.7679 22.5411 32.7679C15.9696 32.7679 10.6304 29.4821 10.6304 25.4571C10.6304 22.8286 12.9304 20.5286 16.3804 19.2143L15.2304 13.3Z" fill="#D1884F"/>
<path d="M19.1732 24.8821C19.1732 25.95 18.5982 26.8536 17.8589 26.8536C17.1196 26.8536 16.5446 25.95 16.5446 24.8821C16.5446 23.8143 17.1196 22.9107 17.8589 22.9107C18.5982 22.9107 19.1732 23.8143 19.1732 24.8821Z" fill="#633001"/>
<path d="M28.2911 24.8821C28.2911 25.95 27.7161 26.8536 26.9768 26.8536C26.2375 26.8536 25.6625 25.95 25.6625 24.8821C25.6625 23.8143 26.2375 22.9107 26.9768 22.9107C27.7161 22.9107 28.2911 23.8143 28.2911 24.8821Z" fill="#633001"/>
</svg>
