<svg width="45" height="45" viewBox="0 0 45 45" fill="none" xmlns="http://www.w3.org/2000/svg">
<circle cx="22.5" cy="22.5" r="22.5" fill="#E5E8E9"/>
<path d="M14.8828 11.9514L35.0328 25.7097L30.0494 33.0764L9.89943 19.2097L14.8828 11.9514Z" fill="url(#paint0_linear)"/>
<path d="M35.0328 25.7097C33.2994 28.2014 27.4494 27.2264 21.9244 23.3264C16.2911 19.5347 13.2578 14.443 14.8828 11.9514C16.6161 9.45971 22.4661 10.4347 27.9911 14.3347C33.6244 18.018 36.6578 23.218 35.0328 25.7097Z" fill="url(#paint1_linear)"/>
<path d="M30.0494 32.968C28.3161 35.4597 22.4661 34.4847 16.9411 30.5847C11.4161 26.6847 8.27443 21.7014 10.0078 19.1014C11.7411 16.6097 17.5911 17.5847 23.1161 21.4847C28.6411 25.3847 31.6744 30.4764 30.0494 32.968Z" fill="url(#paint2_linear)"/>
<path d="M35.0328 25.7097L30.0494 33.0764C28.3161 35.568 22.4661 34.4847 16.9411 30.693C15.8578 29.9347 14.8828 29.1764 13.9078 28.3097C14.6661 28.2014 15.6411 27.768 16.6161 26.6847C18.3494 24.843 19.2161 24.4097 19.9744 24.518C20.7328 24.518 21.5994 25.2764 23.0078 27.118C24.4161 28.9597 26.3661 29.5014 27.5578 28.5264C27.6661 28.418 27.7744 28.418 27.8828 28.3097C28.8578 27.5514 29.1828 27.2264 31.0244 23.7597C31.4578 22.893 32.9744 21.4847 35.0328 22.1347C35.5744 23.543 35.5744 24.7347 35.0328 25.7097Z" fill="#0E0F23"/>
<path fill-rule="evenodd" clip-rule="evenodd" d="M34.2744 25.2764C32.7578 27.443 27.4494 26.3597 22.3578 22.7847C17.1578 19.2097 14.1244 14.6597 15.6411 12.493C17.1578 10.3264 22.4661 11.4097 27.5578 14.9847C32.6494 18.5597 35.6828 23.1097 34.2744 25.2764ZM29.5078 22.0264C28.7494 23.1097 26.1494 22.568 23.5494 20.8347C21.0578 19.1014 19.5411 16.8264 20.2994 15.743C21.0578 14.6597 23.6578 15.2014 26.2578 16.9347C28.7494 18.668 30.2661 20.943 29.5078 22.0264Z" fill="white"/>
<path d="M14.4494 14.443C14.4494 14.3347 14.3411 14.2264 14.2328 14.3347C14.1244 14.443 14.0161 14.443 14.0161 14.5514C14.1244 14.8764 14.2328 15.093 14.2328 15.3097C14.2328 15.418 14.3411 15.5264 14.4494 15.418C14.5578 15.418 14.6661 15.3097 14.5578 15.2014C14.5578 14.9847 14.5578 14.768 14.4494 14.443Z" fill="white"/>
<path d="M14.9911 16.1764C14.9911 16.068 14.8828 15.9597 14.7744 16.068C14.6661 16.1764 14.6661 16.1764 14.6661 16.2847C15.8578 18.993 18.3494 21.918 21.5994 24.0847C21.7078 24.193 21.8161 24.0847 21.9244 24.0847C22.0328 23.9764 21.9244 23.868 21.9244 23.7597C18.5661 21.593 16.1828 18.7764 14.9911 16.1764Z" fill="white"/>
<path d="M28.0994 26.793C27.9911 26.793 27.8828 26.793 27.8828 26.9014C27.8828 27.0097 27.8828 27.118 27.9911 27.118C28.3161 27.2264 28.7494 27.3347 29.0744 27.443C29.1828 27.443 29.2911 27.443 29.2911 27.3347C29.2911 27.2264 29.2911 27.118 29.1828 27.118C28.8578 27.0097 28.4244 26.9014 28.0994 26.793Z" fill="white"/>
<path d="M30.0494 27.2264C29.9411 27.2264 29.8328 27.3347 29.8328 27.443C29.8328 27.5514 29.9411 27.6597 30.0494 27.6597C30.9161 27.768 31.8911 27.8764 32.6494 27.768C32.7578 27.768 32.8661 27.6597 32.8661 27.5514C32.8661 27.443 32.7578 27.3347 32.6494 27.3347C31.7828 27.443 30.9161 27.3347 30.0494 27.2264Z" fill="white"/>
<defs>
<linearGradient id="paint0_linear" x1="18.8306" y1="9.9952" x2="22.8266" y2="23.7169" gradientUnits="userSpaceOnUse">
<stop stop-color="#03B8FF"/>
<stop offset="1" stop-color="#FA52A0"/>
</linearGradient>
<linearGradient id="paint1_linear" x1="22.1214" y1="9.03677" x2="26.1175" y2="22.7586" gradientUnits="userSpaceOnUse">
<stop stop-color="#03B8FF"/>
<stop offset="1" stop-color="#FA52A0"/>
</linearGradient>
<linearGradient id="paint2_linear" x1="15.5501" y1="10.9505" x2="19.5462" y2="24.6723" gradientUnits="userSpaceOnUse">
<stop stop-color="#03B8FF"/>
<stop offset="1" stop-color="#FA52A0"/>
</linearGradient>
</defs>
</svg>
