<svg width="46" height="46" viewBox="0 0 46 46" fill="none" xmlns="http://www.w3.org/2000/svg">
<circle cx="22.6625" cy="22.733" r="22.5" fill="#FFEDF6"/>
<path d="M19.7829 14.3571C19.45 14.3096 19.4342 14.2937 19.5927 14.2779C19.8938 14.2303 20.5911 14.2937 21.0824 14.4047C22.2235 14.6741 23.2536 15.3714 24.3472 16.5918L24.6325 16.9246L25.0445 16.8612C26.8037 16.5759 28.6104 16.7978 30.116 17.4951C30.5281 17.6853 31.1778 18.0657 31.2571 18.1607C31.2888 18.1924 31.3363 18.3985 31.368 18.6045C31.479 19.3494 31.4314 19.9041 31.1937 20.332C31.0669 20.5697 31.0669 20.6331 31.1461 20.8391C31.2095 20.9976 31.3997 21.1085 31.574 21.1085C31.9544 21.1085 32.3506 20.5063 32.5408 19.6663L32.62 19.3335L32.7627 19.492C33.5709 20.3954 34.2049 21.6474 34.3 22.5349L34.3317 22.7726L34.189 22.5666C33.9513 22.2021 33.7294 21.9644 33.4283 21.7583C32.8895 21.3938 32.3189 21.2829 30.8133 21.2036C29.4504 21.1244 28.6738 21.0134 27.9131 20.7599C26.6135 20.332 25.9479 19.7773 24.4106 17.7328C23.7291 16.8295 23.3012 16.3382 22.8733 15.9261C21.9382 15.0228 21.0032 14.5473 19.7829 14.3571Z" fill="#FF007A"/>
<path d="M31.5899 16.3699C31.6216 15.7676 31.7008 15.3714 31.8752 15.0069C31.9386 14.8643 32.002 14.7375 32.0178 14.7375C32.0336 14.7375 32.002 14.8484 31.9544 14.9752C31.8276 15.3239 31.8118 15.8152 31.891 16.3699C32.002 17.0831 32.0495 17.1781 32.8102 17.9547C33.1589 18.3192 33.5709 18.7788 33.7294 18.969L33.9988 19.3177L33.7294 19.0641C33.3966 18.7471 32.6359 18.1449 32.4616 18.0657C32.3506 18.0023 32.3348 18.0023 32.2555 18.0815C32.1921 18.1449 32.1763 18.24 32.1763 18.6996C32.1604 19.4128 32.0653 19.8565 31.8276 20.3161C31.7008 20.5538 31.685 20.5063 31.7959 20.2369C31.8752 20.0308 31.891 19.9358 31.891 19.2543C31.891 17.8755 31.7325 17.5427 30.7658 16.988C30.5281 16.8453 30.116 16.6393 29.8783 16.5284C29.6247 16.4174 29.4345 16.3223 29.4504 16.3223C29.4821 16.2906 30.4171 16.5601 30.7816 16.7185C31.3363 16.9404 31.4314 16.9563 31.4948 16.9404C31.5423 16.8929 31.574 16.7661 31.5899 16.3699Z" fill="#FF007A"/>
<path d="M20.4326 18.7313C19.767 17.8121 19.3391 16.3857 19.4342 15.3239L19.4659 14.9911L19.6244 15.0228C19.9096 15.0703 20.4009 15.2605 20.6387 15.4031C21.2726 15.7835 21.5579 16.3065 21.8273 17.606C21.9065 17.9864 22.0175 18.4302 22.065 18.5728C22.1443 18.8105 22.4454 19.3652 22.699 19.7139C22.8733 19.9675 22.7623 20.0942 22.3661 20.0625C21.7639 19.9992 20.9556 19.4445 20.4326 18.7313Z" fill="#FF007A"/>
<path d="M30.7816 25.6253C27.6436 24.3575 26.5343 23.2639 26.5343 21.4097C26.5343 21.1402 26.5501 20.9184 26.5501 20.9184C26.566 20.9184 26.6769 21.0134 26.8195 21.1244C27.4535 21.6315 28.1666 21.8534 30.1477 22.1387C31.3046 22.313 31.9703 22.4398 32.5725 22.6458C34.4901 23.2798 35.6788 24.5793 35.964 26.3385C36.0433 26.8457 35.9957 27.8124 35.869 28.3195C35.758 28.7158 35.4411 29.4448 35.3618 29.4606C35.346 29.4606 35.3143 29.3814 35.3143 29.2546C35.2826 28.589 34.9498 27.955 34.3951 27.4637C33.7294 26.8932 32.8736 26.4653 30.7816 25.6253Z" fill="#FF007A"/>
<path d="M28.5629 26.1483C28.5312 25.9106 28.4519 25.6095 28.4044 25.4827L28.3251 25.245L28.4678 25.4193C28.6738 25.657 28.8323 25.9423 28.9749 26.3385C29.0859 26.6396 29.0859 26.7347 29.0859 27.226C29.0859 27.7015 29.07 27.8124 28.9749 28.0818C28.8164 28.5097 28.6262 28.8109 28.3093 29.1437C27.7387 29.7301 26.9939 30.047 25.932 30.1897C25.7418 30.2055 25.203 30.2531 24.7275 30.2848C23.5389 30.3481 22.7465 30.4749 22.0333 30.7285C21.9382 30.7602 21.8431 30.7919 21.8273 30.7761C21.7956 30.7444 22.2869 30.4591 22.6831 30.2689C23.2378 29.9995 23.8083 29.8568 25.0604 29.635C25.6785 29.5399 26.3124 29.4131 26.4709 29.3497C28.0399 28.8584 28.8164 27.6381 28.5629 26.1483Z" fill="#FF007A"/>
<path d="M30.0051 28.6999C29.593 27.7966 29.4979 26.9407 29.7198 26.1325C29.7515 26.0532 29.7832 25.974 29.8149 25.974C29.8466 25.974 29.9417 26.0215 30.0368 26.0849C30.2269 26.2117 30.6231 26.4336 31.6374 26.9883C32.9212 27.6856 33.6502 28.2245 34.1573 28.8425C34.6011 29.3814 34.8705 29.9995 34.9973 30.7602C35.0765 31.1881 35.029 32.2183 34.9181 32.6462C34.5694 33.9933 33.777 35.071 32.62 35.689C32.4457 35.7841 32.3031 35.8475 32.2872 35.8475C32.2714 35.8475 32.3348 35.689 32.4299 35.4989C32.8102 34.6906 32.8578 33.914 32.5725 33.0424C32.3982 32.5035 32.0337 31.8537 31.3046 30.7602C30.433 29.4923 30.2269 29.1595 30.0051 28.6999Z" fill="#FF007A"/>
<path d="M18.198 33.5495C19.3708 32.5669 20.813 31.8696 22.1443 31.6477C22.7148 31.5526 23.6657 31.5843 24.1887 31.727C25.0287 31.9488 25.7894 32.4243 26.1856 33.0107C26.566 33.5812 26.7403 34.0725 26.9146 35.166C26.978 35.594 27.0573 36.0377 27.0731 36.1328C27.1999 36.7033 27.4535 37.1471 27.7704 37.3848C28.2617 37.7493 29.1175 37.7652 29.9575 37.4482C30.1001 37.4007 30.2269 37.3531 30.2269 37.369C30.2586 37.4007 29.8307 37.6859 29.5454 37.8286C29.1492 38.0346 28.8323 38.098 28.4044 38.098C27.6436 38.098 26.9939 37.7018 26.4709 36.9094C26.3599 36.7509 26.138 36.2913 25.9479 35.8634C25.3932 34.5797 25.1079 34.1993 24.4581 33.7714C23.8876 33.4069 23.1586 33.3276 22.6039 33.5971C21.8748 33.9457 21.6847 34.8808 22.1918 35.4513C22.3978 35.689 22.7782 35.8792 23.0952 35.9268C23.6816 36.006 24.1887 35.5464 24.1887 34.96C24.1887 34.5797 24.0461 34.3578 23.6657 34.1834C23.1586 33.9616 22.6039 34.2151 22.6197 34.7064C22.6197 34.9125 22.7148 35.0393 22.9208 35.1344C23.0476 35.1977 23.0476 35.1977 22.9525 35.1819C22.4929 35.0868 22.382 34.5163 22.7465 34.1518C23.1903 33.708 24.1253 33.8982 24.4423 34.5163C24.5691 34.7698 24.5849 35.277 24.474 35.594C24.2045 36.2913 23.4438 36.6558 22.6673 36.4498C22.1443 36.3071 21.9224 36.1645 21.2884 35.5147C20.1791 34.3736 19.7512 34.1518 18.1663 33.914L17.8652 33.8665L18.198 33.5495Z" fill="#FF007A"/>
<path fill-rule="evenodd" clip-rule="evenodd" d="M9.86177 8.04948C13.5544 12.5346 19.244 19.5079 19.5293 19.8882C19.767 20.2052 19.6719 20.5063 19.2757 20.7282C19.0538 20.855 18.5942 20.9818 18.3723 20.9818C18.1188 20.9818 17.8177 20.855 17.6116 20.6489C17.469 20.5063 16.8509 19.6029 15.4562 17.4317C14.3944 15.7676 13.491 14.3888 13.4752 14.373C13.4118 14.3413 13.4118 14.3413 15.3453 17.7962C16.5656 19.9675 16.9618 20.744 16.9618 20.8391C16.9618 21.0451 16.8984 21.1561 16.6449 21.4414C16.217 21.9168 16.0268 22.4557 15.8842 23.5809C15.7257 24.8329 15.2978 25.7204 14.0774 27.226C13.3643 28.1135 13.2533 28.272 13.079 28.6365C12.8571 29.0803 12.7937 29.3338 12.762 29.9044C12.7303 30.5066 12.7937 30.887 12.9681 31.4575C13.1265 31.9647 13.3009 32.2975 13.7288 32.9473C14.0933 33.5178 14.3152 33.9457 14.3152 34.1042C14.3152 34.231 14.3469 34.231 14.9174 34.1042C16.2804 33.7872 17.4056 33.2484 18.0237 32.5828C18.404 32.1707 18.4991 31.9488 18.4991 31.3783C18.4991 31.0138 18.4833 30.9345 18.3882 30.7127C18.2297 30.364 17.9286 30.0787 17.2788 29.635C16.423 29.0486 16.0585 28.5731 15.9634 27.9392C15.8842 27.4003 15.9792 27.0358 16.4547 26.0374C16.946 25.0072 17.0728 24.5793 17.152 23.5333C17.1996 22.8677 17.2788 22.5983 17.469 22.3923C17.675 22.1704 17.8494 22.0911 18.3407 22.0277C19.1489 21.9168 19.6719 21.7108 20.084 21.3146C20.4485 20.9818 20.607 20.6489 20.6228 20.1576L20.6387 19.7931L20.4326 19.5712C19.6878 18.7154 9.37047 7.368 9.32292 7.368C9.30708 7.368 9.56065 7.66912 9.86177 8.04948ZM14.7272 30.5859C14.9016 30.2847 14.8065 29.9044 14.5212 29.7142C14.2518 29.5399 13.8397 29.6191 13.8397 29.8568C13.8397 29.9202 13.8714 29.9836 13.9665 30.0153C14.1091 30.0946 14.125 30.1738 14.014 30.3481C13.9031 30.5225 13.9031 30.681 14.0457 30.7919C14.2676 30.9662 14.5687 30.8711 14.7272 30.5859Z" fill="#FF007A"/>
<path fill-rule="evenodd" clip-rule="evenodd" d="M21.1458 22.2496C20.7655 22.3606 20.4009 22.7726 20.29 23.1847C20.2266 23.4382 20.2583 23.8979 20.3692 24.0405C20.5436 24.2624 20.7021 24.3258 21.1458 24.3258C22.0175 24.3258 22.7623 23.9454 22.8416 23.4858C22.9208 23.1054 22.588 22.5824 22.1284 22.3447C21.8907 22.2179 21.3994 22.1704 21.1458 22.2496ZM22.1601 23.042C22.2869 22.8519 22.2394 22.6458 22.0016 22.5032C21.5737 22.2338 20.9239 22.4556 20.9239 22.8677C20.9239 23.0737 21.2568 23.2956 21.5737 23.2956C21.7797 23.2956 22.065 23.1688 22.1601 23.042Z" fill="#FF007A"/>
</svg>
